Jump_normalized_Motion_pl07
version=1
nRows=25
nColumns=43
inDegrees=yes
endheader
time		pelvis_tilt		pelvis_list		pelvis_rotation		pelvis_tx		pelvis_ty		pelvis_tz		hip_flexion_r		hip_adduction_r		hip_rotation_r		knee_angle_r		ankle_angle_r		subtalar_angle_r		mtp_angle_r		hip_flexion_l		hip_adduction_l		hip_rotation_l		knee_angle_l		ankle_angle_l		subtalar_angle_l		mtp_angle_l		lumbar_extension		lumbar_bending		lumbar_rotation		neck_flexion		neck_lateral_bending		neck_rotation		arm_flex_r		arm_add_r		arm_rot_r		elbow_flex_r		pro_sup_r		wrist_flex_r		wrist_dev_r		hand_finger_flex_r		arm_flex_l		arm_add_l		arm_rot_l		elbow_flex_l		pro_sup_l		wrist_flex_l		wrist_dev_l		hand_finger_flex_l		
0.232500		3.637356		-31.239344		93.236956		0.013397		1.725464		1.647177		71.554139		-15.544592		5.066822		-131.483115		35.120116		12.136614		-18.053494		73.147658		-12.023484		8.641915		-129.936375		36.359554		-3.643730		-27.212322		-22.405883		2.390001		-0.248841		27.226309		1.526166		5.415180		119.200093		-19.761435		47.316032		66.983754		53.679571		-31.452424		-15.202225		56.637967		128.937909		-23.846830		64.996025		70.529774		65.321102		-43.068037		4.022195		72.934880		
0.234848		3.498394		-31.041313		93.208995		0.013050		1.727149		1.641602		70.900072		-15.666315		5.088702		-131.175402		34.105512		12.037419		-17.839672		72.407759		-11.909981		8.479555		-129.624787		35.441944		-3.735492		-27.282605		-22.307831		2.302522		-0.351208		26.607225		1.609725		5.435669		119.248811		-19.819556		47.567898		66.858724		53.614454		-31.391483		-14.952632		56.442009		129.125954		-23.838449		65.508834		70.330174		65.145435		-42.962329		4.019517		72.932281		
0.237197		3.383488		-30.916926		93.187715		0.012770		1.728747		1.635995		70.333970		-15.812663		5.042984		-130.859196		33.231672		11.996435		-17.770596		71.776691		-11.869975		8.335651		-129.311867		34.515198		-3.650594		-27.350884		-22.134225		2.228549		-0.446554		25.958801		1.636775		5.447405		119.236500		-19.953706		47.815629		66.889822		53.607745		-31.325120		-14.800007		56.352347		129.219262		-23.911567		65.896113		70.305373		65.064114		-42.875437		4.037525		72.955133		
0.239545		3.147550		-30.615025		93.114160		0.012351		1.730504		1.630401		69.673686		-15.978605		5.067993		-130.571465		31.893042		11.393022		-17.212071		70.950200		-11.694175		7.960857		-128.966224		33.269028		-4.437425		-27.387587		-22.189939		2.028250		-0.610217		25.482085		1.888703		5.515643		119.302751		-20.052143		48.009154		66.800356		53.501078		-31.156698		-14.428827		55.860237		129.615318		-23.869547		66.692995		70.029346		64.590109		-42.741851		3.903413		72.945174		
0.241894		3.033952		-30.458887		93.116549		0.011990		1.731991		1.624873		69.166803		-16.154257		5.029392		-130.287601		30.787984		11.313642		-17.064128		70.381029		-11.625003		7.832940		-128.698042		32.117900		-4.382268		-27.449333		-22.042822		1.962817		-0.721125		24.833500		1.942448		5.525522		119.300712		-20.140785		48.253761		66.718367		53.504705		-31.075977		-14.241615		55.683237		129.727622		-23.868339		67.148488		69.859231		64.435532		-42.681755		3.903520		72.948430		
0.244242		2.898704		-30.246244		93.111223		0.011607		1.733528		1.619372		68.656247		-16.305091		4.957162		-130.008060		29.320058		10.746557		-16.586963		69.770554		-11.498387		7.591552		-128.392415		30.699633		-5.007995		-27.442059		-21.974563		1.856938		-0.849000		24.243994		2.129699		5.560646		119.312478		-20.249672		48.459141		66.619855		53.545498		-30.890464		-13.985315		55.265714		129.973311		-23.810529		67.815426		69.590848		64.082237		-42.610267		3.786179		72.953486		
0.246591		2.817491		-30.053658		93.140790		0.011235		1.734937		1.613956		68.199778		-16.468539		4.847178		-129.742746		27.806160		10.422435		-16.246093		69.254323		-11.420389		7.441407		-128.134936		29.305190		-5.343984		-27.441978		-21.872048		1.807921		-0.963556		23.612711		2.264224		5.571979		119.333391		-20.311596		48.689573		66.431419		53.609515		-30.751569		-13.757827		54.945472		130.156719		-23.720242		68.391500		69.261077		63.842972		-42.557696		3.731873		72.954141		
0.248939		2.760166		-29.887318		93.175032		0.010869		1.736307		1.608523		67.779117		-16.605489		4.697629		-129.457669		26.245453		9.903354		-15.811347		68.804790		-11.358103		7.287254		-127.870886		27.738825		-5.840837		-27.390022		-21.752756		1.772029		-1.052708		22.986007		2.420271		5.587948		119.321829		-20.453408		48.901534		66.368619		53.738310		-30.571321		-13.563243		54.621405		130.330556		-23.670475		68.967089		69.030074		63.625383		-42.472518		3.641672		72.981359		
0.251288		2.722139		-29.733655		93.213622		0.010549		1.737638		1.603110		67.398272		-16.716200		4.510419		-129.168597		24.561610		9.216366		-15.144624		68.411780		-11.313469		7.136158		-127.599765		26.008775		-6.494601		-27.233289		-21.628418		1.738590		-1.130305		22.372438		2.611400		5.606770		119.290017		-20.648490		49.081099		66.371502		53.937678		-30.333822		-13.367221		54.222811		130.511532		-23.627815		69.575674		68.816999		63.378635		-42.365701		3.491205		73.019214		
0.253636		2.726105		-29.581885		93.279553		0.010285		1.738846		1.597800		67.062623		-16.827169		4.315673		-128.905562		22.837348		8.830919		-14.651727		68.090561		-11.315597		7.080278		-127.372947		24.357548		-6.805577		-27.100805		-21.494578		1.748577		-1.198686		21.763594		2.748608		5.602613		119.282994		-20.765316		49.289256		66.253665		54.130285		-30.168902		-13.189580		53.935276		130.646805		-23.533395		70.095010		68.513154		63.248179		-42.276022		3.420717		73.037244		
0.255985		2.723346		-29.458419		93.348435		0.010049		1.739954		1.592523		66.787847		-16.928545		4.124963		-128.637941		20.800537		8.320744		-12.372820		67.839810		-11.304538		7.026258		-127.152915		22.575716		-7.133596		-26.014554		-21.317763		1.730100		-1.261436		21.091542		2.953069		5.561249		119.152725		-20.917752		49.304771		66.195243		54.612522		-29.718412		-12.835364		53.203334		130.751355		-23.372957		70.623557		68.135166		62.966492		-42.124016		3.098793		73.027273		
0.258333		2.744153		-29.346705		93.417846		0.009852		1.741034		1.587249		66.540456		-16.983478		3.906882		-128.350148		18.521388		7.614697		-9.087575		67.637713		-11.302917		6.978664		-126.922488		20.654629		-7.651573		-24.424756		-21.139949		1.716095		-1.300824		20.437774		3.207757		5.528282		118.988764		-21.151116		49.253142		66.231027		55.267491		-29.093478		-12.424579		52.234582		130.881119		-23.227885		71.218439		67.791820		62.632197		-41.923934		2.660697		73.017492		
0.260682		2.871765		-29.186523		93.520739		0.009700		1.742111		1.582049		66.254993		-16.979951		3.628882		-128.068545		16.537307		7.196794		-9.050892		67.450607		-11.393725		7.042828		-126.718387		18.993760		-8.012479		-24.475826		-21.061320		1.836967		-1.299473		19.986286		3.309006		5.557100		119.099959		-21.304623		49.622548		66.119733		55.447380		-29.075434		-12.432142		52.274306		131.059749		-23.184623		71.713907		67.587072		62.862388		-41.791718		2.837263		73.044596		
0.263030		2.979099		-29.075523		93.624220		0.009557		1.743134		1.576891		66.047955		-16.966879		3.312143		-127.763819		14.351791		6.281994		-8.863736		67.342601		-11.452145		7.038614		-126.488449		17.270639		-8.664825		-24.403432		-20.932926		1.914374		-1.314578		19.462470		3.494323		5.550602		119.119488		-21.537327		49.893859		66.132136		55.716920		-29.067838		-12.474355		52.313417		131.195277		-23.119973		72.165040		67.388602		63.113584		-41.595655		2.936715		73.069336		
0.265379		3.079117		-28.945038		93.729073		0.009417		1.744090		1.571842		65.880745		-16.957247		3.092862		-127.474861		12.111153		5.791263		-8.720995		67.252264		-11.514574		7.094872		-126.307806		15.850164		-8.877110		-24.248410		-20.821883		1.987871		-1.327780		18.961384		3.667354		5.514583		119.149653		-21.713512		50.121306		66.028500		56.021829		-29.067846		-12.430605		52.322638		131.295282		-22.978937		72.590549		67.038214		63.331186		-41.408345		2.978442		73.057641		
0.267727		3.166968		-28.866680		93.798449		0.009425		1.744988		1.566669		65.755010		-16.903296		2.804128		-127.182104		9.710747		4.618876		-8.307166		67.204048		-11.578372		7.116731		-126.072054		14.388684		-9.374065		-23.811740		-20.664921		2.000967		-1.297716		18.453362		3.932461		5.474278		119.069362		-22.047854		50.319199		66.185152		56.554403		-29.023171		-12.420877		52.349090		131.410854		-22.843560		73.005785		66.836669		63.665119		-41.086276		2.910773		73.041873		
0.270076		3.245721		-28.756527		93.868109		0.009387		1.745855		1.561634		65.654097		-16.858544		2.597365		-126.874102		7.232757		3.774146		-7.839993		67.169619		-11.645464		7.152375		-125.894287		13.280711		-9.553080		-23.182954		-20.558548		2.021059		-1.270642		17.983218		4.173684		5.421496		119.039087		-22.332290		50.474159		66.239173		57.129367		-28.973684		-12.338263		52.356496		131.518748		-22.685997		73.401028		66.539296		64.029782		-40.766540		2.859470		72.984813		
0.272424		3.298651		-28.635038		93.921957		0.009367		1.746700		1.556628		65.574095		-16.811362		2.439833		-126.575349		4.765467		2.973277		-7.424317		67.130556		-11.698703		7.179098		-125.730743		12.445020		-9.588780		-22.429676		-20.479705		2.014512		-1.256448		17.558113		4.408804		5.367006		119.008819		-22.602579		50.607705		66.283827		57.748511		-28.919914		-12.247167		52.354346		131.634086		-22.528419		73.783752		66.246154		64.437127		-40.454209		2.827671		72.905861		
0.274773		3.345301		-28.454223		93.998680		0.009222		1.747516		1.551661		65.444676		-16.797601		2.417010		-126.308388		2.593177		2.922263		-7.457775		67.059741		-11.697542		7.241349		-125.604285		11.930016		-9.411430		-22.126819		-20.465885		2.051827		-1.294152		17.149050		4.533481		5.311908		119.048346		-22.737067		50.818439		66.164584		58.094161		-28.904520		-12.170207		52.350488		131.740991		-22.401618		74.171962		65.926384		64.693020		-40.304581		2.877604		72.865024		
0.277121		3.345850		-28.299988		94.025694		0.009158		1.748317		1.546744		65.403222		-16.759095		2.405821		-126.031694		0.282802		2.446431		-7.586019		67.009692		-11.711002		7.221414		-125.477839		11.682939		-9.257020		-21.740015		-20.456563		2.012418		-1.309450		16.807411		4.722168		5.262435		119.083188		-22.971774		51.018448		66.149487		58.602418		-28.894385		-12.153290		52.357378		131.900490		-22.279686		74.600879		65.660572		65.068761		-40.115559		2.885161		72.825420		
0.279470		3.285421		-28.186882		93.974271		0.009223		1.749108		1.541802		65.429007		-16.696030		2.331682		-125.734214		-2.024931		1.017575		-7.779409		66.977185		-11.736743		7.141082		-125.357470		11.713614		-8.938366		-20.826926		-20.436021		1.853561		-1.272186		16.503721		5.070018		5.208909		118.984979		-23.368080		51.025083		66.367122		59.544060		-28.877483		-12.128383		52.389142		132.051257		-22.122524		74.969288		65.455701		65.755254		-39.781574		2.817280		72.749348		
0.281818		3.267238		-28.019326		93.995403		0.009121		1.749856		1.536937		65.397070		-16.654128		2.359531		-125.474513		-3.962827		0.648265		-8.057489		66.935321		-11.687825		7.113349		-125.267595		11.917693		-8.686947		-20.252759		-20.463793		1.804104		-1.293143		16.172456		5.252196		5.147365		118.992152		-23.577746		51.148934		66.352952		60.128273		-28.854231		-12.029999		52.408023		132.172980		-21.987894		75.318351		65.189992		66.206065		-39.577392		2.850570		72.697969		
0.284167		3.189022		-27.840554		93.970775		0.009013		1.750561		1.532079		65.401979		-16.625254		2.477200		-125.246033		-5.729119		0.289695		-8.482371		66.869759		-11.637519		7.020883		-125.202367		12.387943		-8.311713		-19.716907		-20.520162		1.694468		-1.324263		15.916432		5.431047		5.085914		119.008561		-23.806350		51.291434		66.349205		60.752499		-28.850234		-11.956938		52.429210		132.321868		-21.877029		75.696991		64.946568		66.712631		-39.397291		2.891266		72.651914		
0.286515		3.056999		-27.666742		93.886045		0.009022		1.751316		1.527185		65.431525		-16.573037		2.559286		-125.039777		-7.181096		-0.619288		-9.340266		66.790034		-11.603452		6.907805		-125.135396		13.050832		-7.596344		-18.786200		-20.610275		1.487838		-1.315934		15.699477		5.729933		5.035355		118.907465		-24.147342		51.210186		66.544415		61.783474		-28.861456		-11.832754		52.483527		132.461541		-21.751010		75.983868		64.781209		67.557650		-39.123586		2.926236		72.588326		
0.288864		3.000566		-27.499192		93.890319		0.008899		1.751963		1.522332		65.435665		-16.544959		2.596697		-124.874613		-8.149723		-1.018914		-9.969446		66.762283		-11.522315		6.821240		-125.076613		13.740456		-7.291358		-18.175502		-20.676777		1.405874		-1.342676		15.423168		5.892972		4.987525		118.850596		-24.412823		51.232104		66.651141		62.460513		-28.846971		-11.712701		52.528921		132.550384		-21.689495		76.252053		64.653679		68.125041		-38.929530		2.986945		72.558350		
